# xmcd
#
# Track frame offsets: 
#        150
#        18214
#        44363
#        59472
#        74013
#        85349
#        108302
#        128064
#        143754
#        156556
#        180978
#        206548
#        228340
#        245198
#        267870
#        285313
#        309520
#
# Disc length: 4382 seconds
#
# Revision: 1
# Processed by: cddbd v1.5.2PL0 Copyright (c) Steve Scherf et al.
# Submitted via: ExactAudioCopy v1.0b3
#
DISCID=f2111c11
DTITLE=Various Artist - Fabric 67 Mixed by Zip
DYEAR=2012
DGENRE=Electronic
TTITLE0=Vedomir - Dreams
TTITLE1=San Proper and Steven De Peven - Pam Pam
TTITLE2=Nail - Till The Feelings Gone
TTITLE3=Melchior Productions Ltd - She Like
TTITLE4=Pluto - Point Blank
TTITLE5=G. Marcell - Excites Me
TTITLE6=Jovonn - Satistied (Moodyfied Mix)
TTITLE7=Twin TM - The Fall Of The House Of Shadows
TTITLE8=Soul Capsule - Seekers
TTITLE9=Dan Curtin - Convergence
TTITLE10=Sakro - Jazz In The Forest
TTITLE11=DJ Qu - Everybody's Dark
TTITLE12=Scott Grooves feat Roy Ayers - Expansions (Pyramid Bonus Beat
TTITLE12=s)
TTITLE13=Terrence Dixon - Return Of The Speaker People (Kausto's Sudde
TTITLE13=n Aphasia Mix)
TTITLE14=Kenny Larkin - Drone
TTITLE15=Armando and Steve Pointdexter - Blackholes (The Sun Of God Remi
TTITLE15=x)
TTITLE16=Isolée - Music
EXTD=
EXTT0=
EXTT1=
EXTT2=
EXTT3=
EXTT4=
EXTT5=
EXTT6=
EXTT7=
EXTT8=
EXTT9=
EXTT10=
EXTT11=
EXTT12=
EXTT13=
EXTT14=
EXTT15=
EXTT16=
PLAYORDER=
